<?xml version="1.0" encoding="UTF-8"?>
<svg width="40px" height="40px" viewBox="0 0 40 40" version="1.1" xmlns="http://www.w3.org/2000/svg" xmlns:xlink="http://www.w3.org/1999/xlink">
    <!-- Generator: Sketch 60 (88103) - https://sketch.com -->
    <title>Visual/English language</title>
    <desc>Created with Sketch.</desc>
    <defs>
        <polygon id="path-1" points="0 0.540398098 2.67595502 0.540398098 2.67595502 3.45472148 0 3.45472148"></polygon>
        <polygon id="path-3" points="0.0372869009 0.322369034 19.2230357 0.322369034 19.2230357 16.6084897 0.0372869009 16.6084897"></polygon>
        <polygon id="path-5" points="0.0491525076 0.0665117719 16.5276778 0.0665117719 16.5276778 1.8526956 0.0491525076 1.8526956"></polygon>
    </defs>
    <g id="Symbols" stroke="none" stroke-width="1" fill="none" fill-rule="evenodd">
        <g id="Module/Requirement/One-score/desktop">
            <g id="Visual/English-language">
                <g id="Group-7-Copy" transform="translate(0.000000, 1.000000)">
                    <g id="Visual---English" transform="translate(0.000000, -1.000000)">
                        <circle id="Oval" fill="#EDF3F6" cx="20" cy="20" r="20"></circle>
                        <g id="Group-29" transform="translate(0.000000, 2.853659)">
                            <g id="Group-3" transform="translate(17.770790, 8.941356)" fill="#FEE7C0">
                                <path d="M6.82411481,10.1930371 C6.79186412,10.4851455 6.85504915,10.8563021 6.96364842,11.2212832 C7.37698382,12.6064819 8.92764975,13.7403316 10.5823077,13.8712554 C11.0792316,13.9113972 11.5728647,14.0225589 12.0651814,13.8113516 C12.5989632,13.5828525 12.8582851,13.1974918 12.7727221,12.6947937 C12.7029553,12.2816426 12.2738236,11.9673019 11.7295109,11.9456872 C11.4142439,11.9333359 11.0970024,11.948775 10.7817355,11.9388939 C10.0294387,11.916044 9.41865008,11.4399013 9.23238588,10.7537863 C9.08956139,10.2282383 9.12510296,9.71504166 9.32255618,9.2086382 C9.88727238,7.76106537 11.2161325,7.37570469 12.5417018,8.27179179 C12.727966,8.39777509 12.909623,8.53178674 13.106418,8.64109578 C13.5046153,8.86403681 13.8705619,8.81154377 14.1970179,8.50337874 C14.7044727,8.02414814 14.7321161,7.38990868 14.1989925,6.92611722 C13.0399421,5.91639812 11.6538205,5.51189291 10.1103945,5.84352543 C8.22603265,6.2486482 6.82674752,8.12048832 6.82411481,10.1930371 M1.4217948,11.1311187 C2.7578949,7.99388745 4.09333682,4.85603867 5.43206963,1.72004259 C5.87304848,0.686856014 6.64311603,0.355841068 7.73634867,0.757876012 C9.87345066,1.54341895 17.53661,4.42930112 17.9841706,4.58183972 C18.6574861,4.81219154 19.328827,5.05365954 19.9830554,5.32785849 C20.8222315,5.67925308 21.1289422,6.47838245 20.7781336,7.33556295 C20.367431,8.34095909 19.9501465,9.34450254 19.5190403,10.3424879 C19.4163646,10.5821032 19.4170228,10.7154973 19.69609,10.845186 C20.2904242,11.1224727 20.6596617,11.5955277 20.8788348,12.1772741 C20.9308308,12.3149911 20.9439943,12.4681473 21.0618081,12.5786915 L21.0618081,13.5507391 C20.9084528,13.8502582 20.7557556,14.1503949 20.6030585,14.4505316 C20.5497461,14.4949963 20.4891938,14.5326678 20.4450959,14.5839257 C19.8520781,15.2786865 19.0806942,15.6097015 18.1362096,15.57203 C17.2608337,15.5374464 17.2614919,15.5318883 17.0048027,16.377335 C16.9277959,16.5354317 16.8474983,16.6916757 16.7737824,16.8516251 C16.4144176,17.6384032 16.1353503,18.4566771 15.7121423,19.2181349 C15.2277237,19.5979375 14.7057891,19.9289525 14.0443208,19.6961304 C12.8385398,19.2724807 11.6459224,18.8142473 10.450014,18.365895 C10.2110957,18.2769656 10.2775716,18.0991068 10.3150877,17.921248 C10.4203961,17.4247256 10.4039416,16.92141 10.2110957,16.4539131 C9.81816376,15.5065681 9.04151444,14.9705215 7.97987431,14.8544192 C6.85175826,14.7309062 5.945448,15.1329412 5.37217549,16.0636119 C5.18656947,16.3656013 5.02794871,16.3767175 4.73308524,16.2587625 C3.7445028,15.865991 2.75657854,15.4682791 1.75219985,15.1137966 C0.928819932,14.8229234 0.479284775,14.3226956 0.510219112,13.4809542 C0.737948489,12.6719438 1.14865118,11.9246899 1.4217948,11.1311187" id="Fill-1"></path>
                            </g>
                            <path d="M6.90895388,23.9090367 C6.90895388,25.4202187 6.9023721,26.9320183 6.91158659,28.4432004 C6.91553565,29.0379157 7.17749025,29.4121602 7.64874526,29.5628461 C8.14896008,29.723413 8.79726481,29.6190445 9.02367783,29.2614743 C9.21586563,28.9576322 9.35210835,28.9959212 9.60813935,29.163899 C11.3319059,30.291573 13.7263553,29.4529195 14.5642151,27.8546607 C15.0137503,26.9962451 15.2269997,26.0945999 15.0887825,25.152813 C14.9248963,24.0368727 14.5286735,22.9814538 13.5631273,22.2508741 C12.3580045,21.3381128 11.0245371,21.2707982 9.66408443,21.9618536 C9.32512307,22.1335367 9.23297824,22.0896896 9.24087637,21.7203856 C9.2573308,20.8848199 9.24811632,20.0474015 9.22705464,19.2112182 C9.2079675,18.3917092 8.41223103,17.9032151 7.632949,18.2255842 C7.0451966,18.4676697 6.91290294,18.9592516 6.91027023,19.4959158 C6.90368846,20.9669561 6.9082957,22.4379964 6.90895388,23.9090367 M19.1925185,20.0721041 C18.9193749,20.8656754 18.5086722,21.6129293 18.281601,22.4219397 C18.0690097,22.7399858 17.8972254,23.0777939 17.8662911,23.456979 C17.8037642,24.2419043 18.1644454,24.6896391 19.1767222,25.1114361 C19.1734314,25.3806945 19.1694823,25.6493354 19.1681659,25.9179763 C19.1582933,27.6922411 19.149737,29.4658883 19.1405225,31.2401532 C18.8904151,31.484709 18.7179726,31.8274577 18.2658047,31.8076956 C17.2482625,31.7619958 16.2340111,31.8706872 15.2177852,31.8793331 C14.5740878,31.8849796 13.9323648,31.7422337 13.2893255,31.8132537 C12.6607661,31.8830385 12.0322067,31.8793331 11.4029891,31.8793331 C9.00656522,31.8799507 6.60948316,31.8719224 4.21240111,31.8849796 C3.58779077,31.8885966 3.05071802,31.7774349 2.69990947,31.243241 C2.69135316,30.1075386 2.68213868,28.9712186 2.6729242,27.8348987 C2.67358237,27.5403201 2.67094966,27.2445063 2.67555691,26.9499277 C2.67884779,26.7646582 2.62290272,26.6405276 2.39780605,26.6226182 C1.36973297,26.5398644 0.712871931,25.9760274 0.255438645,25.1565184 C0.198177212,25.0540026 0.169217407,24.9187558 6.5817739e-05,24.921226 L6.5817739e-05,23.5440556 C0.127752231,23.4736532 0.118537748,23.3359362 0.164610165,23.2290974 C0.560174776,22.3188063 1.26310823,21.7531166 2.30368668,21.6191049 C2.63935715,21.5764929 2.68608774,21.4523623 2.68213868,21.1818688 C2.66831695,20.2388467 2.68016415,19.2945895 2.67687326,18.3515675 C2.67555691,17.8661612 2.67424055,17.3813725 2.78678889,16.9039946 C3.10995398,16.5013421 3.54632559,16.3772115 4.07089297,16.3840047 C5.36289519,16.4025317 6.65621376,16.3870926 7.94953233,16.400679 C8.2647993,16.4037668 8.40696561,16.3142199 8.45567074,16.0023494 C8.63272046,14.8512079 9.66474261,14.0181125 10.8948761,14.0008206 C12.1177697,13.9829112 13.1827008,14.7980973 13.3834449,15.9455334 C13.4453135,16.3000159 13.5901126,16.41056 13.9692227,16.4037668 C15.2184434,16.3796818 16.4683223,16.3969736 17.7182011,16.382152 C18.2480339,16.3765939 18.7146817,16.4760219 19.0543012,16.8904082 C19.194493,17.9476798 19.1517115,19.0111271 19.1925185,20.0721041" id="Fill-4" fill="#247BA0"></path>
                            <g id="Group-8" transform="translate(0.000000, 24.380486)">
                                <mask id="mask-2" fill="white">
                                    <use xlink:href="#path-1"></use>
                                </mask>
                                <g id="Clip-7"></g>
                                <path d="M2.67318747,3.45472148 C1.35880722,3.3639394 0.482773115,2.74946202 0.0878666815,1.55570849 C0.0733867789,1.51062623 0.0299470712,1.47233719 -0.000329088695,1.43096032 L-0.000329088695,0.540431306 C0.1688225,0.537961045 0.197782306,0.673825389 0.255043738,0.775723646 C0.712477024,1.59523267 1.36999624,2.15906969 2.39741114,2.24182343 C2.62316599,2.25973282 2.67911106,2.38448099 2.67582018,2.56913298 C2.67055476,2.86432915 2.67384565,3.15952531 2.67318747,3.45472148" id="Fill-6" fill="#1B5A75" mask="url(#mask-2)"></path>
                            </g>
                            <g id="Group-11" transform="translate(2.632710, 0.295443)">
                                <mask id="mask-4" fill="white">
                                    <use xlink:href="#path-3"></use>
                                </mask>
                                <g id="Clip-10"></g>
                                <path d="M9.82961604,4.72900551 C9.22870009,4.17504953 8.89829504,3.9891624 8.38162578,3.89838032 C6.96522804,3.65073667 5.52316138,4.22630744 4.73334851,5.36756793 C3.64538129,6.94112405 3.59470163,8.58755288 4.47402662,10.2358344 C5.47774714,12.1175556 8.15323823,12.5282364 9.57687592,11.3622733 C9.78880904,11.1899726 9.85462678,11.2616102 9.96914965,11.4524378 C10.2350533,11.8952321 10.5884946,12.013187 11.2249521,11.9125239 C11.6922581,11.8390336 11.8804968,11.5426024 11.9759325,11.1380971 C12.0549138,10.8015241 12.025954,10.4668038 12.0272703,10.1314659 C12.0331939,8.44551288 12.0364848,6.75832476 12.0266122,5.07237176 C12.0220049,4.24915735 11.5757607,3.82550763 10.808984,3.90085058 C10.2949475,3.95210849 10.0086403,4.27077213 9.82961604,4.72900551 M16.4219208,16.5949032 C16.0823012,16.180517 15.6149953,16.081089 15.0851625,16.0872647 C13.8359418,16.1014687 12.5854048,16.0841768 11.3361841,16.1082619 C10.9577321,16.1150551 10.8122749,16.0045109 10.7504062,15.6506461 C10.5503203,14.5025924 9.48538927,13.6874063 8.2618375,13.7053157 C7.03170396,13.7226075 6.00033999,14.555703 5.82263209,15.7068445 C5.77458514,16.0187149 5.63176065,16.1082619 5.31715186,16.105174 C4.02383329,16.0915876 2.73051472,16.1070267 1.43785433,16.0891173 C0.913286946,16.0817066 0.476915336,16.2058372 0.154408416,16.6084897 C-0.0147431735,16.0940579 0.0491000333,15.5654221 0.0491000333,15.0404916 C0.0471255011,10.601433 0.0458091463,6.16175677 0.0431764368,1.72208056 C0.0425182594,1.4781423 0.0464673237,1.23667431 0.133346739,1.00323467 C0.291309313,0.577114678 0.658572296,0.323295382 1.14101632,0.323295382 C5.9009552,0.321442686 10.6615523,0.321442686 15.4214911,0.323295382 C16.0895412,0.323295382 16.5199892,0.756208586 16.5278873,1.45961535 C16.5403927,2.67436609 16.5430254,3.88911684 16.5272292,5.10263246 C16.5232801,5.39968132 16.6062104,5.5046674 16.9326664,5.5633361 C18.56363,5.85729713 19.4396641,7.09304509 19.1401934,8.62831218 C19.1171572,8.75120765 19.1243971,8.86236939 19.1540151,8.98588243 C19.4916601,10.3834325 18.5590228,11.7439286 17.0445566,12.0020709 C16.6147668,12.0755611 16.5107747,12.2200714 16.5213056,12.6134604 C16.5528981,13.7732479 16.5324946,14.9336529 16.53052,16.0940579 C16.5298619,16.2669761 16.5647453,16.4485403 16.4219208,16.5949032" id="Fill-9" fill="#F95C39" mask="url(#mask-4)"></path>
                            </g>
                            <path d="M24.5949043,19.1343931 C24.597537,17.0618443 25.9968222,15.1900042 27.881184,14.7848814 C29.42461,14.4532489 30.8107316,14.8577541 31.969782,15.8674732 C32.5029057,16.3312647 32.4752622,16.9655041 31.9678074,17.4447347 C31.6413515,17.7528998 31.2754048,17.8053928 30.8772075,17.5824518 C30.6804125,17.4731427 30.4987555,17.3391311 30.3124913,17.2131478 C28.986922,16.3170607 27.6580619,16.7024213 27.0933457,18.1499942 C26.8958925,18.6563976 26.8603509,19.1695943 27.0031754,19.6951423 C27.1894396,20.3812572 27.8002282,20.8574 28.552525,20.8802499 C28.8677919,20.890131 29.1850334,20.8746918 29.5003004,20.8870431 C30.0446131,20.9086579 30.4737448,21.2229986 30.5435116,21.6361497 C30.6290746,22.1388478 30.3697527,22.5242085 29.8359709,22.7527076 C29.3436542,22.9639149 28.8500212,22.8527532 28.3530972,22.8126114 C26.6984393,22.6816876 25.1477733,21.5478379 24.7344379,20.1626392 C24.6258387,19.7976581 24.5626536,19.4265014 24.5949043,19.1343931" id="Fill-12" fill="#CC4C2F"></path>
                            <path d="M33.482866,28.1596144 C33.3690013,29.1384553 32.3850261,30.0765368 31.0923657,29.533697 C30.0465218,29.0946081 28.9677691,28.7228339 27.8955981,28.3411786 C27.6349599,28.2485438 27.5902038,28.1447929 27.6533888,27.894679 C27.9673395,26.6379338 27.3045548,25.4114493 26.0849521,24.9433349 C24.7916335,24.44743 23.4739624,24.8463771 22.7368037,25.9975187 C22.5505395,26.2883919 22.4063987,26.3019783 22.1016626,26.1834058 C21.1341418,25.8085437 20.1527993,25.4670302 19.1767222,25.1119302 C18.1644454,24.6895156 17.8037642,24.2417808 17.8662911,23.4568554 C17.8972254,23.0776704 18.0690097,22.7404798 18.281601,22.4218162 C18.2500085,23.2641751 18.6995436,23.7644029 19.5229235,24.0552761 C20.5273022,24.4097585 21.5152265,24.806853 22.5038089,25.200242 C22.7993306,25.3175794 22.9572932,25.3070808 23.1428992,25.0050914 C23.7161717,24.0744206 24.622482,23.6717681 25.750598,23.7958987 C26.8122381,23.912001 27.5888875,24.4480476 27.9818194,25.394775 C28.1753235,25.8622719 28.1911198,26.3662051 28.0858114,26.8621099 C28.0482953,27.0405863 27.9824775,27.2184451 28.2207377,27.3073745 C29.4166461,27.7557268 30.6092635,28.2139602 31.8150445,28.6369923 C32.4765128,28.8698144 32.9984474,28.539417 33.482866,28.1596144" id="Fill-14" fill="#FCAB10"></path>
                            <path d="M38.3735189,23.3915788 C38.1490804,24.7563979 36.7142537,25.7000375 35.2735034,25.4283088 C35.1063263,25.396813 34.9411238,25.3554361 34.7752631,25.3183822 C35.0326105,24.4729355 35.0319523,24.4791111 35.90667,24.5130772 C36.8511546,24.5513662 37.6225385,24.2203513 38.2162145,23.5255904 C38.2596542,23.4743325 38.3208647,23.4360435 38.3735189,23.3915788" id="Fill-16" fill="#FCAB10"></path>
                            <path d="M12.7888474,25.674285 C12.8237308,25.1746748 12.6578701,24.7059428 12.3906501,24.2674715 C12.0668268,23.7376006 11.5685865,23.5035434 10.9202818,23.5368919 C10.2897479,23.5690053 9.84745265,23.8450569 9.5664109,24.3811035 C9.132672,25.2111111 9.16031545,26.029385 9.55456371,26.8637156 C9.80203841,27.3874109 10.1903631,27.7116326 10.809708,27.7715365 C11.507376,27.8388511 12.0543214,27.606029 12.4057882,27.0360163 C12.6598446,26.6247179 12.8151745,26.1763656 12.7888474,25.674285 M6.90803243,23.9092837 C6.90803243,22.4382434 6.90408336,20.9672031 6.91000696,19.4961628 C6.91263967,18.9594986 7.04493332,18.4679167 7.63268573,18.2252136 C8.41262594,17.9034621 9.2083624,18.3919562 9.22744955,19.2108477 C9.24785305,20.0476485 9.25772571,20.8844494 9.2406131,21.7206326 C9.23337314,22.0893191 9.3248598,22.1337838 9.66382116,21.9614831 C11.0242738,21.2704276 12.3583994,21.3383598 13.5635222,22.2511211 C14.5290684,22.9817008 14.924633,24.0371197 15.0885192,25.1524425 C15.2267365,26.0948469 15.0141452,26.9964921 14.5639518,27.8542902 C13.7267502,29.4525489 11.3316427,30.29182 9.60787608,29.1635284 C9.35184507,28.9961683 9.21560236,28.9572616 9.02341456,29.2617213 C8.79765971,29.6192915 8.14869681,29.7236601 7.64848199,29.5630931 C7.17788516,29.4124072 6.91527238,29.0375451 6.91132331,28.4428298 C6.90276701,26.9316478 6.9086906,25.4204657 6.90803243,23.9092837" id="Fill-18" fill="#FEFEFE"></path>
                            <g id="Group-22" transform="translate(2.632710, 31.173703)">
                                <mask id="mask-6" fill="white">
                                    <use xlink:href="#path-5"></use>
                                </mask>
                                <g id="Clip-21"></g>
                                <path d="M16.5078129,0.0665117719 C16.5150529,0.30859733 16.5328237,0.550682888 16.5262419,0.792768446 C16.5084711,1.44676999 16.081314,1.84571711 15.3829878,1.84818737 C14.0613676,1.85436302 12.7397474,1.8494225 11.4187853,1.8494225 C8.14303648,1.85065763 4.86794579,1.85189276 1.59351328,1.85312789 C0.363379737,1.85312789 0.0382401063,1.54619799 0.049429122,0.391351067 C0.0500872993,0.284512287 0.061276315,0.177055943 0.0671999115,0.0695995979 C0.41800846,0.603793495 0.95508121,0.714955231 1.57969155,0.71124984 C3.97677361,0.697663405 6.37385566,0.706309318 8.77027953,0.705691753 C9.39949712,0.705691753 10.0280565,0.709397144 10.6566159,0.639612277 C11.2996552,0.567974714 11.9413782,0.71124984 12.5850757,0.705691753 C13.6013016,0.69704584 14.6155529,0.588354365 15.6330952,0.63405419 C16.085263,0.653816276 16.2577055,0.311067591 16.5078129,0.0665117719" id="Fill-20" fill="#1B5A75" mask="url(#mask-6)"></path>
                            </g>
                            <path d="M8.81404833,8.25159741 C8.83576818,8.71538887 8.93054573,9.16188851 9.1582751,9.57627476 C9.47354207,10.1487577 9.99481857,10.4229566 10.6661595,10.4038121 C11.3427659,10.3859027 11.8285008,10.0709445 12.1036189,9.47808189 C12.4643001,8.69994974 12.4906272,7.92614055 12.137186,7.13503953 C11.8581188,6.51129868 11.3855474,6.15990408 10.6628686,6.14075956 C9.94413891,6.12099747 9.4320769,6.42978007 9.12273353,7.04302231 C8.92791302,7.42776543 8.84366631,7.83227064 8.81404833,8.25159741 M12.4623256,5.02420168 C12.6413499,4.5659683 12.927657,4.24792222 13.4416936,4.19666431 C14.2084702,4.12132136 14.6547145,4.54435352 14.6593217,5.36756793 C14.6691944,7.05413849 14.6659035,8.74070904 14.6599799,10.426662 C14.6586635,10.7619999 14.6876234,11.0967203 14.6086421,11.4332933 C14.5132063,11.8384161 14.3249676,12.1342298 13.8576617,12.2077201 C13.2212041,12.3083832 12.8677629,12.1910458 12.6018592,11.747634 C12.4873363,11.5574239 12.4208604,11.4851688 12.2095855,11.658087 C10.7859478,12.8234326 8.1104567,12.4127517 7.10673618,10.5310306 C6.22741119,8.88274904 6.27743267,7.23632022 7.36605807,5.66338166 C8.15587094,4.5215036 9.5979376,3.94593284 11.0143353,4.19419405 C11.5310046,4.28435857 11.8614096,4.47024569 12.4623256,5.02420168" id="Fill-23" fill="#FEFEFE"></path>
                            <path d="M12.7888474,25.674285 C12.8151745,26.1763656 12.6598446,26.6247179 12.4057882,27.0360163 C12.0543214,27.606029 11.507376,27.8388511 10.809708,27.7715365 C10.1903631,27.7116326 9.80203841,27.3874109 9.55456371,26.8637156 C9.16031545,26.029385 9.132672,25.2111111 9.5664109,24.3811035 C9.84745265,23.8450569 10.2897479,23.5690053 10.9202818,23.5368919 C11.5685865,23.5035434 12.0668268,23.7376006 12.3906501,24.2674715 C12.6578701,24.7059428 12.8237308,25.1746748 12.7888474,25.674285" id="Fill-25" fill="#1B5A75"></path>
                            <path d="M8.81404833,8.25159741 C8.84366631,7.83227064 8.92791302,7.42776543 9.12273353,7.04302231 C9.4320769,6.42978007 9.94413891,6.12099747 10.6628686,6.14075956 C11.3855474,6.15990408 11.8581188,6.51129868 12.137186,7.13503953 C12.4906272,7.92614055 12.4643001,8.69994974 12.1036189,9.47808189 C11.8285008,10.0709445 11.3427659,10.3859027 10.6661595,10.4038121 C9.99481857,10.4229566 9.47354207,10.1487577 9.1582751,9.57627476 C8.93054573,9.16188851 8.83576818,8.71538887 8.81404833,8.25159741" id="Fill-27" fill="#F95C39"></path>
                        </g>
                    </g>
                </g>
            </g>
        </g>
    </g>
</svg>